<svg viewBox="0 -89 512.0001 512" xmlns="http://www.w3.org/2000/svg"><path d="m167.828125 263.046875v-34.3125c0-23.296875 9.242187-45.371094 26.019531-62.148437 16.78125-16.78125 38.855469-26.023438 62.152344-26.023438s45.371094 9.242188 62.152344 26.023438c16.78125 16.777343 26.019531 38.851562 26.019531 62.148437v34.3125h140.5625v-34.3125c0-125.804687-102.929687-228.734375-228.734375-228.734375s-228.738281 102.929688-228.738281 228.734375v34.3125zm0 0" fill="#ffc0e9"/><path d="m27.261719 228.734375v34.3125h140.566406v-34.3125c0-20.449219 7.121094-39.957031 20.207031-55.769531-19.695312-14.371094-41.542968-25.804688-61.058594-40.066406-25.046874-18.308594-26.546874-50.058594-22.867187-74.824219-47.070313 41.972656-76.847656 103.019531-76.847656 170.660156zm0 0" fill="#ff94de"/><path d="m256 46.855469c-48.328125 0-93.933594 18.988281-128.414062 53.464843-34.476563 34.480469-53.46875 80.085938-53.46875 128.414063v34.3125h93.710937v-34.3125c0-23.296875 9.242187-45.371094 26.019531-62.148437 16.78125-16.78125 38.855469-26.023438 62.152344-26.023438s45.371094 9.242188 62.152344 26.023438c16.78125 16.777343 26.019531 38.851562 26.019531 62.148437v34.3125h93.710937v-34.3125c0-48.328125-18.992187-93.933594-53.46875-128.414063-34.480468-34.476562-80.085937-53.464843-128.414062-53.464843zm0 0" fill="#ffeb99"/><path d="m167.828125 228.734375c0-20.449219 7.121094-39.957031 20.207031-55.769531-19.695312-14.371094-41.542968-25.800782-61.058594-40.066406-6.140624-4.488282-10.863281-9.78125-14.441406-15.582032-24.917968 31.84375-38.417968 70.660156-38.417968 111.417969v34.3125h93.710937zm0 0" fill="#ffde55"/><path d="m391.027344 263.046875v-34.3125c0-35.8125-14.113282-69.652344-39.742188-95.28125s-59.46875-39.746094-95.285156-39.746094c-35.8125 0-69.652344 14.117188-95.28125 39.746094s-39.746094 59.46875-39.746094 95.28125v34.3125h46.855469v-34.3125c0-23.296875 9.242187-45.371094 26.019531-62.148437 16.78125-16.78125 38.855469-26.023438 62.152344-26.023438 23.300781 0 45.375 9.242188 62.152344 26.023438 16.78125 16.777343 26.023437 38.851562 26.023437 62.148437v34.3125zm0 0" fill="#b1ef97"/><path d="m167.828125 228.734375c0-20.449219 7.121094-39.957031 20.207031-55.769531-12.664062-9.242188-26.230468-17.273438-39.484375-25.617188-17.894531 23.410156-27.578125 51.722656-27.578125 81.386719v34.3125h46.855469zm0 0" fill="#92dd7a"/><path d="m222.53125 272.199219c-7.347656-14.648438-21.667969-23.042969-36.605469-23.625-5.539062-.21875-10.589843-3.355469-12.957031-8.371094-10.519531-22.300781-33.199219-37.730469-59.488281-37.730469-26.25 0-48.898438 15.382813-59.4375 37.621094-2.359375 4.976562-7.320313 8.289062-12.824219 8.46875-6.675781.21875-13.382812 2.003906-19.570312 5.503906-20.402344 11.542969-27.722657 37.859375-16.15625 58.25 7.941406 13.996094 22.492187 21.730469 37.394531 21.667969h141.109375c8.476562.066406 17.09375-2.382813 24.691406-7.648437 17.320312-11.996094 23.292969-35.300782 13.84375-54.136719zm0 0" fill="#ccf8ff"/><path d="m507.535156 272.199219c-7.351562-14.648438-21.671875-23.042969-36.609375-23.625-5.539062-.21875-10.589843-3.355469-12.953125-8.371094-10.519531-22.300781-33.199218-37.730469-59.492187-37.730469-26.246094 0-48.894531 15.382813-59.4375 37.621094-2.359375 4.976562-7.316407 8.289062-12.820313 8.46875-6.675781.21875-13.386718 2.003906-19.570312 5.503906-20.402344 11.542969-27.722656 37.859375-16.15625 58.25 7.9375 13.996094 22.492187 21.730469 37.394531 21.667969h141.109375c8.476562.066406 17.09375-2.382813 24.6875-7.648437 17.320312-11.996094 23.292969-35.300782 13.847656-54.136719zm0 0" fill="#ccf8ff"/><g fill="#9ff6ff"><path d="m86.054688 274.699219c-5.207032-59.277344 50.835937-67.9375 50.835937-67.9375-7.269531-2.773438-15.164063-4.289063-23.410156-4.289063-26.25 0-48.898438 15.382813-59.4375 37.621094-2.359375 4.976562-7.320313 8.289062-12.824219 8.46875-6.675781.214844-13.382812 2.003906-19.570312 5.503906-20.402344 11.542969-27.722657 37.859375-16.15625 58.25 7.941406 14 22.492187 21.730469 37.394531 21.667969h82.820312c-17.871093-10.492187-36.96875-28.722656-39.652343-59.285156zm0 0"/><path d="m371.054688 274.699219c-5.207032-59.277344 50.839843-67.9375 50.839843-67.9375-7.273437-2.769531-15.167969-4.289063-23.414062-4.289063-26.25 0-48.894531 15.382813-59.4375 37.625-2.359375 4.976563-7.316407 8.285156-12.824219 8.464844-6.671875.21875-13.382812 2.003906-19.566406 5.503906-20.40625 11.542969-27.726563 37.859375-16.160156 58.25 7.941406 13.996094 22.496093 21.730469 37.398437 21.667969h82.816406c-17.871093-10.492187-36.964843-28.722656-39.652343-59.285156zm0 0"/></g></svg>