<?xml version="1.0" encoding="iso-8859-1"?>
<!-- Generator: Adobe Illustrator 19.0.0, SVG Export Plug-In . SVG Version: 6.00 Build 0)  -->
<svg version="1.1" id="Capa_1" xmlns="http://www.w3.org/2000/svg" xmlns:xlink="http://www.w3.org/1999/xlink" x="0px" y="0px"
	 viewBox="0 0 512.001 512.001" style="enable-background:new 0 0 512.001 512.001;" xml:space="preserve">
<path style="fill:#F9A13E;" d="M181.435,106.49c-9.279,19.03-23.026,29.765-23.026,29.765H37.557c0,0-16.661-7.594-25.435-28.04
	C6.4,94.883,4.032,76.081,11.821,50.361c19.73-65.163,151.928-66.156,172.651-8.392C193.953,68.423,189.289,90.415,181.435,106.49z"
	/>
<g>
	<path style="fill:#E2780E;" d="M181.435,106.49c-9.279,19.03-23.026,29.765-23.026,29.765h-32.248
		c0-19.665,16.002-35.658,35.666-35.658C169.063,100.598,175.811,102.763,181.435,106.49z"/>
	<path style="fill:#E2780E;" d="M69.796,136.256h-32.24c0,0-16.661-7.594-25.435-28.04c6.064-4.77,13.715-7.618,22.017-7.618
		C53.803,100.598,69.796,116.591,69.796,136.256z"/>
</g>
<path style="fill:#D2E3F1;" d="M27.385,302.903c-4.893,0-8.756-4.245-8.202-9.107c1.461-12.825,5.97-24.733,12.783-34.966
	c14.276-21.434,38.662-35.562,66.346-35.562c21.987,0,41.901,8.915,56.315,23.32c3.732,3.732,7.099,7.839,10.021,12.252
	c6.814,10.232,11.322,22.133,12.783,34.955c0.554,4.862-3.308,9.107-8.202,9.107H27.385V302.903z"/>
<path style="fill:#A5C6E3;" d="M164.648,258.84l-30.349,28.523c-4.601,4.324-11.778,4.255-16.29-0.148l-19.697-19.223
	l-19.696,19.223c-4.512,4.403-11.699,4.472-16.29,0.148L31.967,258.83c14.276-21.434,38.662-35.562,66.346-35.562
	c21.987,0,41.901,8.915,56.315,23.32C158.359,250.32,161.726,254.427,164.648,258.84z"/>
<path style="fill:#5A9BCC;" d="M155.317,247.294l-25.497,23.96c-1.983,1.863-5.081,1.834-7.028-0.067l-24.479-23.894l-24.479,23.894
	c-1.947,1.9-5.045,1.93-7.028,0.067l-25.497-23.96c14.455-14.832,34.66-24.034,57.004-24.034c22.347,0,42.547,9.201,57.004,24.032
	C155.317,247.292,155.317,247.293,155.317,247.294z"/>
<path style="fill:#FCCE99;" d="M98.309,247.294L98.309,247.294c-9.742,0-17.639-7.897-17.639-17.639v-30.422h35.278v30.422
	C115.948,239.397,108.051,247.294,98.309,247.294z"/>
<g>
	<circle style="fill:#FCCE99;" cx="161.821" cy="136.261" r="23.453"/>
	<circle style="fill:#FCCE99;" cx="34.131" cy="136.261" r="23.453"/>
</g>
<path style="fill:#FEE6CC;" d="M161.825,73.674l-3.041,36.441l-4.097,49.059c-2.458,29.49-27.111,52.168-56.71,52.168
	c-29.589,0-54.242-22.678-56.7-52.168l-4.295-51.438l-2.844-34.062C34.138,73.674,161.825,73.674,161.825,73.674z"/>
<path style="fill:#FCCE99;" d="M161.825,73.674l-3.041,36.441c-9.754,1.836-19.657,2.755-29.688,2.755
	c-33.015,0-59.425-10.041-73.277-16.685c-4.581,3.801-10.86,8.106-18.837,11.551l-2.844-34.062
	C34.138,73.674,161.825,73.674,161.825,73.674z"/>
<path style="fill:#F9A13E;" d="M149.977,55.421c19.746,14.93,54.301,22.102,54.301,22.102
	c-79.971,45.918-151.056,0.485-151.056,0.485s-9.095,11.835-26.62,17.882V55.421H149.977z"/>
<path style="fill:#E2780E;" d="M128.888,105.739c-11.892,0-22.599-1.348-31.659-3.181c-19.897-4.026-34.891-10.844-42.536-14.85
	C49.849,92.3,41.27,99.002,29.122,103.194c-4.035,1.392-8.432-0.751-9.824-4.784c-1.392-4.034,0.75-8.432,4.784-9.824
	C38.997,83.439,47.019,73.4,47.096,73.299c2.443-3.178,6.91-3.959,10.287-1.802c0.158,0.101,17.312,10.844,43.508,16.034
	c28.259,5.601,55.685,2.929,81.777-7.932c-11.801-3.856-26.487-9.801-37.352-18.016c-3.404-2.573-4.076-7.42-1.503-10.823
	c2.572-3.403,7.42-4.076,10.823-1.503c18.149,13.723,50.883,20.632,51.211,20.7c3.142,0.652,5.554,3.179,6.06,6.347
	c0.506,3.169-0.999,6.321-3.783,7.919C179.49,100.667,151.958,105.739,128.888,105.739z"/>
<g>
	<path style="fill:#1D71B8;" d="M67.704,140.326c-4.267,0-7.726-3.459-7.726-7.726v-1.257c0-4.268,3.459-7.726,7.726-7.726
		s7.726,3.459,7.726,7.726v1.257C75.43,136.867,71.971,140.326,67.704,140.326z"/>
	<path style="fill:#1D71B8;" d="M128.106,140.326c-4.267,0-7.726-3.459-7.726-7.726v-1.257c0-4.268,3.459-7.726,7.726-7.726
		s7.726,3.459,7.726,7.726v1.257C135.833,136.867,132.374,140.326,128.106,140.326z"/>
</g>
<path style="fill:#E8A96B;" d="M98.92,181.48c-7.128,0-13.797-2.099-18.78-5.909c-3.389-2.593-4.035-7.442-1.443-10.831
	c2.592-3.387,7.441-4.033,10.831-1.443c2.235,1.709,5.746,2.73,9.391,2.73s7.156-1.021,9.391-2.73
	c3.39-2.591,8.239-1.947,10.831,1.443c2.593,3.389,1.947,8.238-1.443,10.831C112.718,179.382,106.048,181.48,98.92,181.48z"/>
<path style="fill:#F9A13E;" d="M471.966,324.119c-10.34,21.205-25.659,33.169-25.659,33.169h-134.67c0,0-18.566-8.462-28.344-31.246
	c-6.376-14.857-9.016-35.808-0.336-64.469c21.986-72.614,169.299-73.72,192.391-9.351
	C485.916,281.699,480.719,306.206,471.966,324.119z"/>
<g>
	<path style="fill:#E2780E;" d="M471.966,324.119c-10.34,21.205-25.659,33.169-25.659,33.169h-35.935
		c0-21.913,17.832-39.735,39.744-39.735C458.18,317.552,465.699,319.965,471.966,324.119z"/>
	<path style="fill:#E2780E;" d="M347.563,357.288h-35.926c0,0-18.566-8.462-28.344-31.246c6.757-5.315,15.283-8.49,24.534-8.49
		C329.741,317.552,347.563,335.374,347.563,357.288z"/>
</g>
<path style="fill:#FCE790;" d="M449.633,512.001h-140.6c-6.314,0-10.26-6.796-7.178-12.307c1.112-1.988,2.297-3.93,3.554-5.821
	c15.911-23.879,43.084-39.62,73.925-39.62c24.509,0,46.692,9.929,62.761,25.986c4.153,4.153,7.907,8.731,11.164,13.647
	c1.255,1.885,2.44,3.822,3.55,5.806C459.894,505.203,455.947,512.001,449.633,512.001z"/>
<g>
	<path style="fill:#FCCE99;" d="M379.336,481.021L379.336,481.021c-10.856,0-19.656-8.8-19.656-19.656v-33.9h39.311v33.9
		C398.992,472.221,390.191,481.021,379.336,481.021z"/>
	<circle style="fill:#FCCE99;" cx="450.111" cy="357.291" r="26.13"/>
	<circle style="fill:#FCCE99;" cx="307.821" cy="357.291" r="26.13"/>
</g>
<path style="fill:#FEE6CC;" d="M450.115,287.546l-2.948,35.345l-0.444,5.27l-4.562,54.664c-0.163,1.977-0.417,3.927-0.762,5.841
	c-5.297,29.967-31.436,52.288-62.437,52.288c-30.802,0-56.805-22.058-62.319-51.753c-0.399-2.086-0.68-4.218-0.862-6.376
	l-4.78-57.322l-0.272-3.229l-2.902-34.729h142.288V287.546z"/>
<g>
	<path style="fill:#FCCE99;" d="M313.242,352.387l2.538,30.439c0.181,2.159,0.463,4.29,0.862,6.376
		c6.911,4.68,15.237,7.41,24.189,7.41c16.235,0,30.393-8.988,37.803-22.249c7.401,13.26,21.568,22.249,37.803,22.249
		c9.288,0,17.904-2.939,24.96-7.945c0.345-1.914,0.599-3.864,0.762-5.841l2.54-30.439H313.242z"/>
	<path style="fill:#FCCE99;" d="M450.114,287.55l-3.389,40.608c-10.87,2.046-21.904,3.07-33.082,3.07
		c-36.79,0-66.22-11.189-81.655-18.593c-5.105,4.236-12.102,9.032-20.991,12.872l-3.169-37.956h142.286V287.55z"/>
</g>
<path style="fill:#F9A13E;" d="M436.912,267.211c22.004,16.638,60.51,24.629,60.51,24.629c-89.114,51.168-168.327,0.54-168.327,0.54
	s-10.135,13.188-29.664,19.927v-45.096H436.912z"/>
<path style="fill:#E2780E;" d="M413.407,322.398c-13.186,0-25.053-1.495-35.1-3.527c-22.581-4.569-39.452-12.371-47.723-16.758
	c-5.23,5.05-14.837,12.736-28.634,17.497c-4.034,1.394-8.433-0.751-9.824-4.784c-1.391-4.034,0.749-8.433,4.784-9.824
	c16.865-5.819,25.971-17.217,26.057-17.331c2.445-3.177,6.911-3.959,10.288-1.802c0.18,0.114,19.382,12.151,48.716,17.975
	c32.488,6.452,63.984,3.149,93.898-9.804c-13.423-4.238-30.896-11.048-43.618-20.667c-3.403-2.573-4.076-7.42-1.503-10.823
	c2.572-3.403,7.419-4.078,10.823-1.503c20.328,15.37,57.053,23.151,57.423,23.227c3.14,0.654,5.551,3.181,6.055,6.349
	s-1,6.318-3.782,7.915C469.516,316.772,438.986,322.397,413.407,322.398z"/>
<g>
	<circle style="fill:#FFF4EB;" cx="340.831" cy="353.331" r="29.67"/>
	<circle style="fill:#FFF4EB;" cx="416.431" cy="353.331" r="29.67"/>
</g>
<g>
	<path style="fill:#E2780E;" d="M340.832,390.733c-20.621,0-37.397-16.777-37.397-37.397c0-20.621,16.777-37.396,37.397-37.396
		c20.621,0,37.396,16.776,37.396,37.396S361.452,390.733,340.832,390.733z M340.832,331.392c-12.101,0-21.945,9.844-21.945,21.944
		c0,12.101,9.844,21.945,21.945,21.945c12.1,0,21.944-9.844,21.944-21.945C362.775,341.236,352.931,331.392,340.832,331.392z"/>
	<path style="fill:#E2780E;" d="M416.434,390.733c-20.621,0-37.396-16.777-37.396-37.397c0-20.621,16.776-37.396,37.396-37.396
		s37.397,16.776,37.397,37.396C453.832,373.956,437.055,390.733,416.434,390.733z M416.434,331.392
		c-12.1,0-21.944,9.844-21.944,21.944c0,12.101,9.844,21.945,21.944,21.945c12.101,0,21.945-9.844,21.945-21.945
		C438.379,341.236,428.535,331.392,416.434,331.392z"/>
	<path style="fill:#E2780E;" d="M386.764,361.062h-16.263c-4.268,0-7.726-3.459-7.726-7.726c0-4.268,3.459-7.726,7.726-7.726h16.263
		c4.268,0,7.726,3.459,7.726,7.726C394.491,357.603,391.032,361.062,386.764,361.062z"/>
</g>
<g>
	<path style="fill:#1D71B8;" d="M345.231,360.939c-4.268,0-7.726-3.459-7.726-7.726v-1.4c0-4.268,3.459-7.726,7.726-7.726
		s7.726,3.459,7.726,7.726v1.4C352.958,357.48,349.499,360.939,345.231,360.939z"/>
	<path style="fill:#1D71B8;" d="M412.54,360.939c-4.268,0-7.726-3.459-7.726-7.726v-1.4c0-4.268,3.459-7.726,7.726-7.726
		c4.268,0,7.726,3.459,7.726,7.726v1.4C420.266,357.48,416.808,360.939,412.54,360.939z"/>
</g>
<path style="fill:#E8A96B;" d="M380.017,414.065c-7.749,0-14.99-2.274-20.389-6.401c-3.389-2.592-4.036-7.441-1.445-10.831
	c2.592-3.389,7.441-4.037,10.831-1.445c2.68,2.049,6.69,3.224,11.003,3.224s8.323-1.175,11.003-3.224
	c3.39-2.592,8.239-1.944,10.831,1.445c2.592,3.39,1.945,8.239-1.445,10.831C395.007,411.791,387.766,414.065,380.017,414.065z"/>
<g>
	<path style="fill:#5A9BCC;" d="M442.722,122.017c-4.044-1.353-8.424,0.829-9.778,4.876l-5.654,16.904
		C387.211,81.527,319.505,42.53,245.484,39.311c-4.264-0.205-7.869,3.121-8.055,7.383c-0.185,4.264,3.121,7.87,7.384,8.055
		c70.005,3.043,133.973,40.403,171.117,99.939c0.069,0.111,0.152,0.208,0.226,0.314l-23.688-7.922
		c-4.044-1.356-8.424,0.83-9.778,4.876c-1.354,4.047,0.83,8.425,4.876,9.778l37.659,12.595c0.813,0.273,1.639,0.401,2.452,0.401
		c3.231,0,6.244-2.044,7.326-5.278l12.595-37.659C448.952,127.747,446.768,123.37,442.722,122.017z"/>
	<path style="fill:#5A9BCC;" d="M259.465,457.252c-70.005-3.044-133.974-40.404-171.118-99.939
		c-0.068-0.108-0.145-0.207-0.217-0.311l23.678,7.919c4.049,1.36,8.425-0.83,9.778-4.876c1.354-4.047-0.83-8.425-4.877-9.778
		l-37.658-12.594c-1.943-0.653-4.065-0.502-5.899,0.412s-3.229,2.52-3.879,4.464l-12.595,37.659
		c-1.354,4.047,0.83,8.425,4.877,9.778c0.813,0.273,1.639,0.401,2.452,0.401c3.232,0,6.245-2.044,7.326-5.278l5.653-16.905
		c40.079,62.269,107.786,101.266,181.806,104.486c0.115,0.005,0.228,0.007,0.342,0.007c4.112,0,7.532-3.242,7.713-7.39
		C267.033,461.044,263.727,457.438,259.465,457.252z"/>
</g>
<g>
</g>
<g>
</g>
<g>
</g>
<g>
</g>
<g>
</g>
<g>
</g>
<g>
</g>
<g>
</g>
<g>
</g>
<g>
</g>
<g>
</g>
<g>
</g>
<g>
</g>
<g>
</g>
<g>
</g>
</svg>
